<?xml version="1.0" standalone="no"?>
<!DOCTYPE svg PUBLIC "-//W3C//DTD SVG 1.1//EN" "http://www.w3.org/Graphics/SVG/1.1/DTD/svg11.dtd" >
<!--
2013-9-30: Created.
-->
<svg>
<metadata>
Created by iconfont
</metadata>
<defs>

<font id="iconfont" horiz-adv-x="1024" >
  <font-face
    font-family="iconfont"
    font-weight="500"
    font-stretch="normal"
    units-per-em="1024"
    ascent="896"
    descent="-128"
  />
    <missing-glyph />
    
    <glyph glyph-name="x" unicode="x" horiz-adv-x="1001"
d="M281 543q-27 -1 -53 -1h-83q-18 0 -36.5 -6t-32.5 -18.5t-23 -32t-9 -45.5v-76h912v41q0 16 -0.5 30t-0.5 18q0 13 -5 29t-17 29.5t-31.5 22.5t-49.5 9h-133v-97h-438v97zM955 310v-52q0 -23 0.5 -52t0.5 -58t-10.5 -47.5t-26 -30t-33 -16t-31.5 -4.5q-14 -1 -29.5 -0.5
t-29.5 0.5h-32l-45 128h-439l-44 -128h-29h-34q-20 0 -45 1q-25 0 -41 9.5t-25.5 23t-13.5 29.5t-4 30v167h911zM163 247q-12 0 -21 -8.5t-9 -21.5t9 -21.5t21 -8.5q13 0 22 8.5t9 21.5t-9 21.5t-22 8.5zM316 123q-8 -26 -14 -48q-5 -19 -10.5 -37t-7.5 -25t-3 -15t1 -14.5
t9.5 -10.5t21.5 -4h37h67h81h80h64h36q23 0 34 12t2 38q-5 13 -9.5 30.5t-9.5 34.5q-5 19 -11 39h-368zM336 498v228q0 11 2.5 23t10 21.5t20.5 15.5t34 6h188q31 0 51.5 -14.5t20.5 -52.5v-227h-327z" />
    

    
    <glyph glyph-name="shouye" unicode="&#58903;" d="M891.213229-149.566042 128.691499-149.566042c-37.168528 0-67.282383 30.115901-67.282383 67.281359L61.409117 680.239094c0 37.155225 30.113855 67.281359 67.282383 67.281359l762.52173 0c37.167504 0 67.282383-30.125111 67.282383-67.281359l0-762.5248C958.495612-119.451164 928.380734-149.566042 891.213229-149.566042zM936.06781 657.812315c0 37.156248-30.114878 67.281359-67.280336 67.281359L151.118278 725.093674c-37.167504 0-67.282383-30.125111-67.282383-67.281359l0-717.67022c0-37.166481 30.114878-67.280336 67.282383-67.280336l717.669196 0c37.165458 0 67.280336 30.113855 67.280336 67.280336L936.06781 657.812315zM797.453822 254.12416l-29.566386 0 0-246.699682c0-12.373819-10.053983-22.426779-22.427802-22.426779L588.469114-15.0023l0 22.426779L588.469114 186.841777 588.469114 209.269579l-22.426779 0-67.281359 0-22.427802 0 0-22.427802 0-179.417299 0-22.426779L319.342654-15.0023c-12.395308 0-22.426779 10.05296-22.426779 22.426779L296.915875 254.12416l-29.611411 0c-10.42442 10.730389-20.060895 22.229281-29.172413 34.166147l294.26807 324.668451 294.226115-324.668451C817.538253 276.352417 807.922245 264.854549 797.453822 254.12416zM252.061294 276.550938l67.282383 0 0-22.426779 0-246.699682 134.563742 0L453.907419 231.696358l156.989497 0 0-224.27188 134.563742 0L745.460658 254.12416l0 22.426779 67.282383 0L532.401144 568.103154 252.061294 276.550938z"  horiz-adv-x="1024" />

    
    <glyph glyph-name="shuzi9" unicode="&#58901;" d="M467.17 87.87c-99.907 8.966-180.602 47.392-242.083 115.278-60.201 65.324-89.661 143.457-89.661 235.679 0 98.627 34.583 181.883 102.469 248.488 70.448 69.167 162.67 103.75 275.386 103.75 113.997 0 204.938-34.583 275.386-103.75 67.886-66.605 102.469-149.861 102.469-248.488 0-65.324-15.37-124.244-44.83-174.198l-279.228-479.043h-281.79l181.883 302.284zM649.053 438.827c0 37.145-12.809 67.886-39.707 93.503s-58.92 38.426-96.065 38.426-69.167-12.809-96.065-38.426-39.707-56.358-39.707-93.503 12.809-67.886 39.707-93.503 58.92-38.426 96.065-38.426 69.167 12.809 96.065 38.426 39.707 56.358 39.707 93.503z"  horiz-adv-x="1024" />

    
    <glyph glyph-name="fangdajing" unicode="&#58889;" d="M794.816 414.368c0 219.328-177.792 397.12-397.12 397.12S0.512 633.696 0.512 414.368c0-219.328 177.792-397.12 397.12-397.12S794.816 195.04 794.816 414.368zM397.696 54.304c-198.848 0-360.064 161.216-360.064 360.064 0 198.848 161.216 360.064 360.064 360.064s360.064-161.216 360.064-360.064C757.76 215.52 596.544 54.304 397.696 54.304zM1007.616-118.88l-245.632 245.632c-21.12 21.12-55.68 21.12-76.8 0l0 0c-21.12-21.12-21.12-55.68 0-76.8l245.632-245.632c21.12-21.12 55.68-21.12 76.8 0l0 0C1028.736-174.56 1028.736-140 1007.616-118.88z"  horiz-adv-x="1024" />

    
    <glyph glyph-name="gengduo" unicode="&#59066;" d="M128 300m-128 0a2 2 0 1 0 256 0 2 2 0 1 0-256 0ZM512 300m-128 0a2 2 0 1 0 256 0 2 2 0 1 0-256 0ZM896 300m-128 0a2 2 0 1 0 256 0 2 2 0 1 0-256 0Z"  horiz-adv-x="1024" />

    
    <glyph glyph-name="gouwucheshoppingcart" unicode="&#58937;" d="M874.576 538.898c-14.141 14.863-33.442 23.017-54.601 23.017h-478.3c-15.173 0-27.662-11.56-27.662-25.701s12.386-25.701 27.662-25.701h478.197c5.161 0 9.702-1.858 13.315-5.574 5.47-5.78 8.051-15.276 7.019-23.946l-43.557-231.615c-1.548-11.457-13.108-21.469-26.836-21.572l-374.672-25.701c-15.069-1.135-26.526-13.315-25.494-27.559 1.032-13.521 13.212-23.843 27.559-23.843 0.619 0 1.445 0 2.168 0.206l372.711 25.494c39.841 0 74.728 29.21 79.476 65.232l43.557 231.615c2.993 24.875-4.335 48.614-20.54 65.645zM811.202 99.303h-448.677c-11.663 0-23.327 10.012-24.875 21.985l-47.066 308.098-26.526 142.85c-4.851 37.364-40.254 66.677-80.508 66.677h-35.196c-15.173 0-27.662-11.56-27.662-25.701s12.386-25.701 27.662-25.701h35.196c11.973 0 24.256-10.115 25.907-22.707l26.63-143.469 46.86-306.859c4.851-37.364 39.841-66.677 79.682-66.677h448.574c15.379 0 27.662 11.56 27.662 25.701 0 14.347-12.283 25.804-27.662 25.804zM320-29.2c0 0 0 0 0 0 0-27.476 22.274-49.75 49.75-49.75 27.476 0 49.75 22.274 49.75 49.75 0 0 0 0 0 0 0 0 0 0 0 0 0 27.476-22.274 49.75-49.75 49.75-27.476 0-49.75-22.274-49.75-49.75s0 0 0 0zM706.748-29.2c0 0 0 0 0 0 0-27.476 22.274-49.75 49.75-49.75 27.476 0 49.75 22.274 49.75 49.75 0 0 0 0 0 0 0 0 0 0 0 0 0 27.476-22.274 49.75-49.75 49.75-27.476 0-49.75-22.274-49.75-49.75s0 0 0 0z"  horiz-adv-x="1024" />

    
    <glyph glyph-name="wode1" unicode="&#58885;" d="M269.068643 210.977341m-47.333028 0a46.255 46.255 0 1 0 94.666056 0 46.255 46.255 0 1 0-94.666056 0ZM782.768355 210.977341m-47.333028 0a46.255 46.255 0 1 0 94.666056 0 46.255 46.255 0 1 0-94.666056 0ZM741.73173 667.96747l-39.908942-238.430344L155.280064 429.537126c-0.384763-7.853875-0.584308-20.8734-0.584308-28.823466l572.199057 0 18.614963 126.08565 20.782326-126.08565 237.407038 0 18.419512 0c0 273.15931-221.439368 494.597655-494.597655 494.597655-273.15931 0-494.597655-221.439368-494.597655-494.597655 0-273.15931 221.439368-494.597655 494.597655-494.597655 197.960631 0 364.864942 108.23305 443.899996 276.235368l-21.678742 8.072863C872.08252 32.904667 715.016275-70.347952 527.519973-70.347952c-262.986623 0-471.061612 208.076012-471.061612 471.061612S264.534374 871.775272 527.519973 871.775272c255.371178 0 458.665281-190.793394 470.521307-443.230754l-209.237465 0.992607L741.73173 667.96747z"  horiz-adv-x="1024" />

    
    <glyph glyph-name="buchongiconsvg02" unicode="&#58972;" d="M912.046 582.741c-22.103 46.546-53.683 88.293-93.863 124.083-39.967 35.599-86.455 63.53-138.174 83.015-53.383 20.112-110.053 30.31-168.432 30.31-58.379 0-115.049-10.198-168.433-30.31-51.719-19.485-98.208-47.415-138.174-83.015-40.18-35.79-71.761-77.537-93.863-124.083-22.997-48.429-34.657-99.895-34.657-152.967 0-89.659 34.325-176.388 96.95-245.719l-35.858-152.643c-0.020-0.087-0.041-0.175-0.060-0.263-3.307-14.78 1.381-30.314 12.236-40.538 7.613-7.172 17.32-10.982 27.303-10.981 3.663 0 7.364 0.513 11.010 1.562 1.098 0.315 2.174 0.704 3.219 1.164l157.273 69.067c12.937 5.682 18.82 20.775 13.138 33.711-5.682 12.937-20.774 18.818-33.711 13.138l-136.191-59.809 34.584 147.217c1.992 8.484-0.469 17.397-6.533 23.655-59.45 61.346-92.191 139.633-92.191 220.439 0 187.040 172.244 339.206 383.96 339.206 211.716 0 383.959-152.168 383.959-339.206s-172.244-339.206-383.959-339.206c-27.796 0-55.528 2.637-82.424 7.839-13.874 2.681-27.294-6.389-29.976-20.26-2.683-13.873 6.389-27.294 20.261-29.976 30.090-5.819 61.090-8.769 92.14-8.769 58.379 0 115.049 10.198 168.432 30.31 51.719 19.485 98.208 47.415 138.174 83.015 40.18 35.79 71.76 77.537 93.863 124.083 22.997 48.429 34.657 99.895 34.657 152.967-0.002 53.071-11.662 104.537-34.659 152.966zM342.513 492.207c-30.163 0-54.614-24.452-54.614-54.614 0-30.163 24.452-54.614 54.614-54.614s54.614 24.452 54.614 54.614c0.001 30.162-24.451 54.614-54.614 54.614zM566.617 437.592c0 30.162-24.452 54.614-54.614 54.614-30.163 0-54.614-24.452-54.614-54.614 0-30.163 24.452-54.614 54.614-54.614 30.162-0.001 54.614 24.451 54.614 54.614zM736.108 437.592c0 30.162-24.452 54.614-54.614 54.614s-54.614-24.452-54.614-54.614c0-30.163 24.452-54.614 54.614-54.614 30.162-0.001 54.614 24.451 54.614 54.614z"  horiz-adv-x="1025" />

    
    <glyph glyph-name="iconyuanjian82" unicode="&#59033;" d="M1276.130834 452.088865l39.22532 0 0-105.093038-39.22532 0 0 105.093038ZM1668.47624 634.628386l-1288.951217 0c-138.418456 0-250.629017-112.210561-250.629017-250.629017s112.210561-250.629017 250.629017-250.629017l1288.951217 0c138.419719 0 250.63028 112.210561 250.63028 250.629017S1806.894696 634.628386 1668.47624 634.628386zM1495.19771 472.07098c7.886746-7.400456 14.548293-15.29857 19.982114-23.682974l-13.321831-8.140628c-4.937426 8.384404-11.355197 16.525032-19.241943 24.423146L1495.19771 472.07098zM451.617258 551.314842c67.11439 0 121.549863-54.437999 121.549863-121.56502 0-35.698767-15.412248-67.822985-39.932652-90.047087l-81.617212-86.309598-81.655104 86.309598c-24.514088 22.224103-39.911179 54.34832-39.911179 90.047087C330.050975 496.876842 384.453608 551.314842 451.617258 551.314842zM451.60968 216.685158c-67.868456 0-122.888741 11.252886-122.888741 25.133003 0 10.785542 33.233212 19.979588 79.889302 23.545297-37.141218-3.373719-63.048497-10.982584-63.048497-19.830543 0-11.977901 47.479626-19.162368 106.047936-19.162368s106.047936 7.184467 106.047936 19.162368c0 8.846696-25.898437 16.454299-63.030814 19.82928 46.648511-3.566972 79.872882-12.761018 79.872882-23.544034C574.499684 227.936781 519.479399 216.685158 451.60968 216.685158zM957.149596 316.65257l-170.221848 0 0 14.062003 28.124005 0 0 96.212239 14.802174 0 0-96.212239 39.965492 0 0 126.555496-74.009609 0 0 14.062003 155.419673 0 0-14.062003-66.60789 0 0-49.586463 61.42795 0 0-14.062003-61.42795 0 0-62.908294 72.529265 0L957.150859 316.65257zM1142.91379 318.871822l-120.635385 0 0 14.062003 53.287323 0 0 51.806979-44.40526 0 0 14.062003 44.40526 0 0 36.264633 14.802174 0 0-36.264633 45.885604 0 0-14.062003-45.885604 0 0-51.806979 52.547151 0L1142.915053 318.871822zM1144.394134 443.948238l-102.872523 0c-8.880799-18.756915-17.762862-33.801603-26.643661-45.145432l0-87.33144-14.802174 0 0 68.828406c-5.435085-5.921375-11.101315-11.598973-17.02269-17.021427l-10.361143 11.841487c9.864748 9.864748 18.988061 19.982114 27.383833 30.343258l0 12.581659 9.620971 0c4.441031 6.904061 9.36709 15.542346 14.802174 25.903489l-45.885604 0 0 14.062003 52.545888 0c3.446978 7.886746 6.661547 15.78486 9.620971 23.682974l14.802174-2.960687c-2.474397-7.400456-4.937426-14.315884-7.400456-20.722286l96.212239 0L1144.394134 443.948238zM1245.786313 348.846257c-1.480344-16.038741-4.324827-26.273575-8.510713-30.713344-4.197255-4.441031-10.488715-6.660284-18.871857-6.660284-4.937426 0-10.118629 0.497658-15.542346 1.480344l-3.700859 14.062003c6.406402-0.982686 12.824172-1.480344 19.241943-1.480344 5.921375 0 9.620971 2.960687 11.101315 8.880799 2.960687 12.327777 4.441031 45.389209 4.441031 99.172926l-25.163318 0c-0.497658-60.687778-12.339145-102.387495-35.524461-125.076416l-10.361143 11.102578c20.225891 21.208577 30.587034 59.207434 31.083429 113.973838l-26.643661 0 0 14.062003 26.643661 0 0 33.303945 14.802174 0 0-33.303945 39.22532 0C1248.006829 397.808753 1247.266657 364.87363 1245.786313 348.846257zM1329.416893 321.092338l-14.062003 0 0 12.581659-39.22532 0 0-13.321831-14.062003 0 0 145.05853 67.348062 0L1329.41563 321.092338zM1418.967585 309.250851l-14.062003 0 0 23.682974-44.40526-5.921375-2.960687 13.321831 47.365948 5.181203 0 14.802174-36.264633 0-2.960687 11.841487c6.406402 6.406402 12.084001 13.321831 17.02269 20.722286l-18.501771 0 0 12.581659 25.903489 0 5.921375 14.062003 12.581659-2.220516-4.441031-11.841487 42.924916 0 0-12.581659-49.586463 0c-4.441031-7.898114-9.378458-14.802174-14.802174-20.722286l22.20263 0 0 16.282518 14.062003 0 0-16.282518 27.383833 0 0-11.841487-27.383833 0 0-12.581659 28.864177 4.441031 2.220516-11.841487c-9.874853-1.976739-20.235996-3.700859-31.083429-5.181203L1418.968848 309.250851zM1507.779368 311.471366c-7.898114 0-16.778913 10.118629-26.643661 30.343258-9.378458-10.361143-21.462458-19.728233-36.264633-28.124005l-8.140628 11.841487c16.767545 9.864748 29.604349 20.468405 38.485148 31.823601-6.915428 19.728233-11.355197 41.190691-13.321831 64.388638l-103.612695 0 0 13.321831 42.924916 0 0 16.282518-35.524461 0 0 13.321831 35.524461 0 0 16.282518 14.062003 0 0-16.282518 34.044117 0 0-13.321831-34.044117 0 0-16.282518 45.145432 0c-0.994053 13.808121-1.480344 29.106691-1.480344 45.885604l14.062003 0c0-16.778913 0.48629-32.077483 1.480344-45.885604l48.846291 0 0-13.321831-48.106119 0c1.480344-17.276571 4.683545-34.297998 9.620971-51.066807 6.406402 10.361143 12.327777 22.68892 17.762862 37.004804l12.581659-4.441031c-6.915428-20.235996-15.29857-36.761028-25.163318-49.586463 6.904061-16.778913 12.824172-25.163318 17.762862-25.163318 3.943373 0 6.904061 8.384404 8.880799 25.163318l12.581659-3.700859C1526.767429 324.306907 1519.620855 311.471366 1507.779368 311.471366zM1618.859463 381.391084l-30.686819 0 0 30.686819 30.686819 0L1618.859463 381.391084zM1680.018374 381.391084l-30.686819 0 0 30.686819 30.686819 0L1680.018374 381.391084zM1741.177286 381.391084l-30.686819 0 0 30.686819 30.686819 0L1741.177286 381.391084zM441.957131 360.843104 502.435236 447.018814 455.263805 447.018814 461.266018 502.028994 400.784124 415.854547 447.956818 415.854547Z"  horiz-adv-x="2048" />

    
    <glyph glyph-name="clock" unicode="&#59086;" d="M511.999488-63.290145c-246.616017 0-447.290656 200.623474-447.290656 447.290656 0 246.616017 200.674639 447.290656 447.290656 447.290656s447.290656-200.674639 447.290656-447.290656C959.290145 137.332306 758.615505-63.290145 511.999488-63.290145zM511.999488 770.239636c-212.955349 0-386.291313-173.283775-386.291313-386.239124 0-213.007538 173.335964-386.342478 386.291313-386.342478 213.007538 0 386.240147 173.33494 386.240147 386.342478C898.240659 596.955861 725.00805 770.239636 511.999488 770.239636zM533.172738 365.14096l-160.282657-175.647615c0 0-20.195991-19.167568-39.055543-2.003636-18.808387 17.214074-2.004659 39.46589-2.004659 39.46589l152.676414 167.219656L484.506293 714.94523c0 0 2.004659 28.161415 27.493195 28.059084 25.488536-0.103354 28.059084-28.059084 28.059084-28.059084l0-326.884235C541.240492 375.777215 533.172738 365.14096 533.172738 365.14096z"  horiz-adv-x="1024" />

    
    <glyph glyph-name="lajitong" unicode="&#59077;" d="M1048.728739 463.487272M1070.373186 785.302363 797.699141 785.302363l-105.44506 102.600081c-5.335002 5.180788-12.584383 8.097557-20.112945 8.097557L444.578635 896.000001c-7.527232 0-14.805861-2.916769-20.138204-8.097557L318.992712 785.302363 46.318666 785.302363c-15.668661 0-28.445811-12.388957-28.445811-27.668095 0-15.264514 12.750562-27.668095 28.445811-27.668095l284.479383 0c7.55515 0 14.777943 2.916769 20.111615 8.112181l105.44639 102.586786 204.006333 0 105.44639-102.586786c5.360261-5.194083 12.556465-8.112181 20.112945-8.112181L1070.403763 729.966174c15.721838 0 28.444482 12.388957 28.444482 27.668095C1098.846916 772.885488 1086.097683 785.302363 1070.373186 785.302363L1070.373186 785.302363zM956.59393 619.243277c-15.723167 0-28.445811-12.388957-28.445811-27.668095l0-608.905474c0-30.474521-25.527713-55.33486-56.890293-55.33486L245.434027-72.665152c-31.361251 0-56.861045 24.860339-56.861045 55.33486l0 608.905474c0 15.277808-12.723973 27.668095-28.445811 27.668095-15.695249 0-28.445811-12.388957-28.445811-27.668095l0-608.905474c0-61.00222 51.056755-110.66972 113.780586-110.66972l625.82247 0c62.723831 0 113.808504 49.6675 113.808504 110.66972l0 608.905474c0 15.277808-12.750562 27.668095-28.445811 27.668095L956.59393 619.243277zM444.552046 65.727169 444.552046 591.547264c0 15.25122-12.722644 27.668095-28.445811 27.668095-15.695249 0-28.444482-12.361039-28.444482-27.668095l0-525.820095c0-15.277808 12.750562-27.668095 28.444482-27.668095C431.829402 38.059075 444.552046 50.422772 444.552046 65.727169L444.552046 65.727169zM729.003511 65.727169 729.003511 591.547264c0 15.25122-12.721315 27.668095-28.416564 27.668095-15.723167 0-28.445811-12.361039-28.445811-27.668095l0-525.820095c0-15.277808 12.722644-27.668095 28.445811-27.668095C716.282196 38.059075 729.003511 50.422772 729.003511 65.727169L729.003511 65.727169zM729.003511 65.727169"  horiz-adv-x="1120" />

    
    <glyph glyph-name="fenlei1" unicode="&#58880;" d="M241.333976 896c66.656119 0 126.984113-26.954909 170.649612-70.546729 0.49221-0.560772 0.984421-1.052982 1.476631-1.614777 42.750663-43.450604 69.188802-103.046934 69.188802-168.751379l0-214.378555c0-14.671141-11.884678-26.53433-26.580379-26.53433L241.333976 414.17423c-66.586534 0-126.844943 26.954909-170.508395 70.546729l-0.069585 0.070608-0.070608-0.070608c-43.663452 43.592844-70.66441 103.820554-70.66441 170.366156 0 66.476017 27.000957 126.774335 70.66441 170.365132C114.348839 869.045091 174.747441 896 241.333976 896L241.333976 896zM374.365828 787.897933c-34.033118 33.975812-81.071434 54.963823-133.031852 54.963823-51.961442 0-98.999758-20.989033-133.030829-54.963823-34.032094-33.973766-55.054897-80.935334-55.054897-132.810818 0-51.875484 21.022803-98.835006 55.054897-132.810818l0-0.069585c34.031071-33.905204 81.07041-54.893214 133.030829-54.893214l188.086749 0L429.420725 655.087115c0 51.244104-20.461007 97.642854-53.717436 131.548058L374.365828 787.897933zM708.350458 303.546643c-14.6957 0-26.646893 11.93175-26.646893 26.603915 0 14.600533 11.951193 26.535353 26.646893 26.535353l73.196069 0c66.657142 0 126.984113-26.954909 170.649612-70.547753 0.49221-0.561795 0.984421-1.050935 1.476631-1.613754 42.74964-43.451628 69.185732-103.048981 69.185732-168.751379 0-66.477041-27.000957-126.633119-70.663386-170.224939l-0.14224-0.14224c-43.662429-43.590797-103.920838-70.544683-170.507372-70.544683-66.585511 0-126.84392 26.954909-170.509419 70.544683l-0.069585 0.069585-0.068562-0.069585c-43.665499 43.591821-70.66441 103.820554-70.66441 170.366156L540.23353 330.150558c0 14.600533 11.952216 26.535353 26.578332 26.535353 14.693654 0 26.647917-11.93482 26.647917-26.535353l0-214.378555c0-51.873438 21.022803-98.836029 55.054897-132.810818l0-0.069585c34.031071-33.905204 81.072457-54.894238 133.031852-54.894238 51.960419 0 99.070366 20.989033 133.101437 54.894238 33.961486 33.974789 54.985312 81.006965 54.985312 132.880403 0 51.242058-20.461007 97.641831-53.720505 131.548058l-1.335415 1.261737c-34.033118 33.975812-81.071434 54.964846-133.031852 54.964846L708.350458 303.546643zM241.333976-72.002638c51.960419 0 99.070366 20.989033 133.101437 54.894238 33.963533 33.974789 54.985312 81.006965 54.985312 132.880403L429.420725 303.546643 241.333976 303.546643c-51.961442 0-98.999758-20.989033-133.030829-54.964846-34.032094-33.974789-55.054897-80.934311-55.054897-132.809795 0-51.873438 21.022803-98.836029 55.054897-132.810818l1.264806-1.333368C143.528416-51.576423 190.004937-72.002638 241.333976-72.002638L241.333976-72.002638zM411.841348-54.595176c-43.662429-43.590797-103.920838-70.544683-170.507372-70.544683-65.811892 0-125.508505 26.393113-169.031764 69.071122-0.561795 0.49221-1.054005 0.982374-1.616824 1.473561-43.663452 43.591821-70.66441 103.820554-70.66441 170.366156 0 66.476017 27.000957 126.775358 70.66441 170.365132 43.663452 43.593867 104.062054 70.547753 170.648588 70.547753l214.734666 0c14.6957 0 26.580379-11.93482 26.580379-26.535353l0-214.378555c0-66.477041-26.999934-126.633119-70.665433-170.224939L411.841348-54.595176zM781.546527 842.862779c-51.959396 0-99.000781-20.989033-133.031852-54.963823-34.032094-33.973766-55.054897-80.935334-55.054897-132.810818L593.459778 467.313497l188.086749 0c51.960419 0 99.070366 20.98801 133.101437 54.893214 33.961486 33.973766 54.985312 81.004919 54.985312 132.880403 0 51.874461-21.024849 98.836029-54.985312 132.810818l-0.069585 0C880.545262 821.873746 833.506946 842.862779 781.546527 842.862779L781.546527 842.862779zM610.897939 825.453271c43.662429 43.591821 104.062054 70.546729 170.648588 70.546729 66.657142 0 126.984113-26.954909 170.649612-70.546729l-0.069585-0.069585 0.069585-0.070608c43.662429-43.590797 70.663386-103.748922 70.663386-170.224939 0-66.474994-27.000957-126.633119-70.663386-170.224939l-0.14224-0.141216c-43.662429-43.591821-103.920838-70.546729-170.507372-70.546729L566.811862 414.175253c-14.626115 0-26.578332 11.863189-26.578332 26.53433L540.23353 655.087115C540.234553 721.563132 567.23244 781.862473 610.897939 825.453271L610.897939 825.453271z"  horiz-adv-x="1024" />

    
    <glyph glyph-name="fenlei" unicode="&#58883;" d="M148.992 647.68l44.544 0c11.776 0 20.992 10.24 20.992 23.04 0 12.8-9.216 23.04-20.992 23.04l-44.544 0c-11.776 0-20.992-10.24-20.992-23.04C128 657.92 137.728 647.68 148.992 647.68L148.992 647.68zM150.016 372.736l44.032 0c11.776 0 22.016 10.752 22.016 23.04 0 12.288-10.24 23.04-22.016 23.04l-44.032 0c-11.776 0-22.016-10.752-22.016-23.04C128 382.976 138.24 372.736 150.016 372.736L150.016 372.736zM215.04 97.792c0 12.8-9.216 23.04-20.992 23.04l-44.544 0c-11.776 0-20.992-10.24-20.992-23.04 0-12.8 9.216-23.04 20.992-23.04l44.544 0C205.312 74.752 215.04 84.992 215.04 97.792L215.04 97.792zM302.592 647.168l572.416 0c11.776 0 20.992 10.24 20.992 23.04 0 12.8-9.216 23.04-20.992 23.04L302.592 693.248c-11.776 0-20.992-10.24-20.992-23.04C281.6 657.408 290.816 647.168 302.592 647.168L302.592 647.168zM303.616 372.736l570.368 0c11.776 0 22.016 10.752 22.016 23.04 0 12.288-10.24 23.04-22.016 23.04L303.616 418.816c-11.776 0-22.016-10.752-22.016-23.04C281.6 382.976 291.84 372.736 303.616 372.736L303.616 372.736zM896 97.792c0 12.8-9.216 23.04-20.992 23.04l-573.44 0c-11.776 0-20.992-10.24-20.992-23.04 0-12.8 9.216-23.04 20.992-23.04l573.44 0C886.784 74.752 896 84.992 896 97.792L896 97.792zM896 97.792"  horiz-adv-x="1024" />

    
    <glyph glyph-name="sanjiao" unicode="&#58887;" d="M273.694118-39.996235 903.860706 394.526118 273.694118 829.018353Z"  horiz-adv-x="1024" />

    
    <glyph glyph-name="xingqiu" unicode="&#59045;" d="M992.22016 528.2304c-16.01536 56.35584-83.2512 94.0544-179.16928 109.8496 14.3104-16.73216 27.25376-34.64192 38.62528-53.60128 53.42208-15.1552 89.57952-38.70208 97.92512-68.04992 4.8384-16.99328 0.6912-36.93056-12.32384-59.19744-14.04416-24.05376-39.33184-50.95424-74.56256-78.02368 0.02048 1.73056 0.26112 3.38944 0.26112 5.12512 0 193.16736-158.55104 349.7472-354.0992 349.7472-195.54816 0-354.09408-156.57984-354.09408-349.7472 0-59.15648 14.99648-114.81088 41.23648-163.64544-70.02624 14.09024-118.04672 40.7552-127.86176 75.2896-4.8384 17.01376-0.6912 36.88448 12.32384 59.19744 7.08608 12.10368 17.93536 25.08288 30.5152 38.2976 0.51712 22.7072 2.80576 44.99456 7.0656 66.62144C46.40256 402.22208 9.856 339.37408 25.5488 284.17024c17.35168-61.00992 94.57664-100.224 203.33056-113.37728 64.77312-82.71872 165.9392-136.21248 280.00768-136.21248 173.63456 0 317.78304 123.53536 348.00128 286.43328C956.49792 386.81088 1010.81088 462.88384 992.22016 528.2304zM508.88704 78.30016c-84.6336 0-161.26976 33.60256-217.18016 87.95136 7.54176-0.23552 15.104-0.40448 22.8864-0.40448 76.98432 0 163.73248 10.73664 253.16864 33.31584 88.91392 22.46144 168.9856 53.87776 235.4432 89.89184C762.63424 166.74304 646.29248 78.30016 508.88704 78.30016zM816.20992 347.2128c-65.05472-40.35072-152.32-78.6688-259.38944-105.71264-82.8416-20.92032-166.58944-31.95392-242.23232-31.95392-21.87264 0-42.35776-1.87392-62.15168-0.08192-33.67424 48.9728-53.38624 111.21664-53.38624 174.8736 0 169.00096 138.70592 306.02752 309.83168 306.02752 171.12576 0 309.8368-137.02656 309.8368-306.02752C818.71872 371.7376 817.72544 359.3984 816.20992 347.2128zM353.91488 296.89344c-48.8192 0-88.5248 39.22432-88.5248 87.43936 0 48.20992 39.7056 87.43424 88.5248 87.43424 48.82432 0 88.5248-39.22944 88.5248-87.43424C442.43968 336.11776 402.7392 296.89344 353.91488 296.89344zM353.91488 428.04736c-24.40192 0-44.2624-19.60448-44.2624-43.71456 0-24.1152 19.86048-43.71968 44.2624-43.71968s44.2624 19.60448 44.2624 43.71968C398.17728 408.44288 378.3168 428.04736 353.91488 428.04736zM542.0288 537.344c-30.5152 0-55.32672 24.51968-55.32672 54.64576 0 30.1312 24.81152 54.65088 55.32672 54.65088 30.5152 0 55.32672-24.51456 55.32672-54.65088C597.35552 561.86368 572.54912 537.344 542.0288 537.344zM542.0288 602.92608c-6.0928 0-11.06944-4.89984-11.06944-10.9312 0-6.02624 4.97152-10.92608 11.06944-10.92608s11.06432 4.89984 11.06432 10.92608C553.09312 598.02624 548.12672 602.92608 542.0288 602.92608zM663.75168 340.61312c-24.40192 0-44.2624 19.6096-44.2624 43.71968 0 24.11008 19.86048 43.71456 44.2624 43.71456 24.3968 0 44.2624-19.6096 44.2624-43.71456C708.01408 360.22272 688.14848 340.61312 663.75168 340.61312z"  horiz-adv-x="1024" />

    
    <glyph glyph-name="cart" unicode="&#58915;" d="M1001.633684 701.278316c-221.076211 0.107789-442.152421 0.053895-663.228632 0.053895-17.300211 0-34.600421 0-53.301895 0-4.527158 31.043368-7.653053 56.589474-12.018526 81.973895C263.006316 841.620211 244.628211 857.411368 186.206316 858.219789c-30.666105 0.431158-61.332211 0.107789-91.998316 0C62.032842 858.112 35.247158 849.434947 33.953684 811.277474 32.768 775.760842 45.433263 747.142737 84.075789 739.435789 101.214316 735.986526 119.430737 735.393684 136.946526 736.579368c27.540211 1.940211 39.720421-7.491368 44.247579-36.540632 9.862737-63.649684 24.360421-126.544842 36.756211-189.817263 19.563789-99.597474 37.672421-199.518316 59.068632-298.738526 9.269895-42.954105 23.821474-88.602947 79.602526-88.980211 193.643789-1.347368 387.287579-0.269474 580.931368-0.700632 32.444632-0.053895 48.074105 17.030737 50.068211 46.565053 2.263579 33.145263-20.048842 44.840421-48.882526 47.373474-12.826947 1.131789-25.815579 0.970105-38.696421 0.970105-146.863158 0.053895-293.726316-0.754526-440.535579 0.323368-94.100211 0.700632-75.776-18.000842-94.369684 84.399158-0.485053 2.802526 1.509053 6.090105 3.826526 14.551579 15.898947 0 33.306947 0 50.714947 0 169.445053 0 338.890105 1.131789 508.335158-0.646737 53.301895-0.592842 85.099789 21.935158 102.076632 70.440421 21.773474 62.356211 44.139789 124.496842 66.021053 186.799158C1134.376421 681.660632 1120.094316 701.224421 1001.633684 701.278316zM394.24 88.656842c-53.301895 0.377263-98.627368-44.517053-98.573474-97.765053 0.053895-53.625263 43.654737-97.064421 98.465684-98.250105 56.427789-1.185684 103.693474 43.546947 103.693474 98.196211C497.879579 45.864421 453.039158 88.225684 394.24 88.656842zM853.962105 85.099789c-54.918737-0.323368-99.489684-44.247579-98.950737-97.603368 0.538947-52.978526 46.457263-96.956632 100.998737-96.687158 58.044632 0.269474 102.184421 44.624842 100.837053 101.214316C955.553684 45.702737 911.683368 85.423158 853.962105 85.099789z"  horiz-adv-x="1132" />

    
    <glyph glyph-name="fanhui3" unicode="&#58888;" d="M999.918589-18.938096c-11.34786 0-21.2637 7.968773-23.558543 19.280532-0.311675 1.505427-16.066308 73.448214-83.253344 144.105794C807.557312 234.422443 675.185663 283.927033 509.209666 288.2604l0-195.482841c0-9.033763-5.067427-17.333466-13.11081-21.410513-8.061433-4.113148-17.71975-3.379087-25.045919 1.945863L9.944721 407.576594c-6.225078 4.517483-9.933891 11.752196-9.933891 19.445395s3.672712 14.927912 9.878535 19.463446l461.109419 335.806416c7.326169 5.32495 17.00374 6.096316 25.082021 2.001219 8.061433-4.113148 13.128861-12.3948 13.128861-21.446614l0-207.564762c29.710215-1.083041 81.527699-5.489813 141.608783-21.446614 95.630093-25.376848 175.00976-69.665995 235.971718-131.619537 93.811788-95.37257 139.974595-229.122087 137.182757-397.502435-0.184117-12.30214-9.622215-22.438198-21.869-23.540493C1001.369863-18.900791 1000.634599-18.938096 999.918589-18.938096zM485.174585 336.662695c106.591669 0 201.083365-16.783522 280.903469-49.87162 64.690025-26.808869 119.867342-64.341045 164.02893-111.494233 14.505526-15.461009 26.84497-30.958119 37.348059-45.905284-16.012156 97.50255-54.46251 177.598228-114.946726 239.074028C722.3208 500.820387 529.573239 507.522002 492.261281 507.522002c-3.984387 0-6.169722-0.091457-6.205824-0.091457-6.536753-0.220218-12.871338 2.203386-17.572938 6.72087-4.700397 4.553585-7.363474 10.796713-7.363474 17.333466L461.119046 715.582557 64.975226 427.095395 461.120249 139.930747 461.120249 312.60836C461.120249 325.902083 471.879657 336.662695 485.174585 336.662695z"  horiz-adv-x="1025" />

    
    <glyph glyph-name="fanhui" unicode="&#58951;" d="M165.96331 454.762846l259.506267 0-95.115464 95.115464c47.600232 47.600232 112.455549 77.86038 181.645887 77.86038s134.045655-25.925127 181.645887-77.86038c47.600232-47.600232 77.86038-112.455549 77.86038-181.645887s-25.925127-134.045655-77.86038-181.645887c-47.600232-47.600232-112.455549-77.86038-181.645887-77.86038s-134.045655 25.925127-181.645887 77.86038c-4.335021 4.335021-8.670042 8.670042-13.005064 13.005064l-64.855317-56.185274c64.855317-73.525359 155.72076-116.79057 259.506267-116.79057 190.315929 0 346.03669 155.72076 346.03669 346.03669S702.230929 718.604134 511.915 718.604134c-95.115464 0-181.645887-38.93019-246.501204-99.450486l-99.450486 99.450486L165.96331 454.762846 165.96331 454.762846z"  horiz-adv-x="1024" />

    
    <glyph glyph-name="paixu" unicode="&#59297;" d="M958.696692 536.202471l-42.88267-42.114167-225.13555 217.489406v-744.494145h-59.559491V800.917458h58.043975L958.696692 536.202471zM334.837044-32.917458L65.303308 231.799576l42.88267 42.114166 225.13555-217.491452V800.917458h59.559491v-833.833893h-58.043975v-0.001023z"  horiz-adv-x="1024" />

    
    <glyph glyph-name="fanhui2" unicode="&#59174;" d="M905.2 366.2H166.7c-15.4 0-27.9 12.5-27.9 27.9 0 15.4 12.5 27.9 27.9 27.9h738.5c15.4 0 27.9-12.5 27.9-27.9 0-15.4-12.5-27.9-27.9-27.9zM478.1-5.7c-7.1 0-14.3 2.7-19.7 8.2L102.3 358.6c-11 11-17 25.6-17 41.1s6 30.1 17 41.1l356.1 356c10.9 10.9 28.5 10.9 39.4 0 10.9-10.9 10.9-28.5 0-39.4L141.7 401.3c-0.8-0.8-0.8-2.6 0-3.3l356.1-356.1c10.9-10.9 10.9-28.5 0-39.4-5.4-5.5-12.5-8.2-19.7-8.2z"  horiz-adv-x="1024" />

    
    <glyph glyph-name="shouye1" unicode="&#58892;" d="M1011.667976 433.519192 603.490198 756.234343c-35.167677 27.79798-90.246465 27.79798-125.414141 0L69.898279 433.519192c-13.963636-10.989899-16.290909-31.288889-5.30101-45.252525 10.989899-13.963636 30.771717-16.290909 44.735354-5.30101l12.670707 10.472727 0-390.076768c0-55.337374 58.311111-96.581818 109.511111-96.581818l644.137374 0c50.682828 0 83.781818 38.787879 83.781818 96.581818L959.433632 391.886869l11.765657-8.921212c5.947475-4.654545 13.187879-6.981818 20.169697-6.981818 9.438384 0 19.006061 4.137374 25.341414 12.282828C1027.829592 402.230303 1025.631612 422.529293 1011.667976 433.519192L1011.667976 433.519192M508.589188-28.832323 508.589188 149.721212c0 8.921212 16.161616 13.317172 32.193939 13.317172s32.193939-4.39596 32.193939-13.317172l0-178.553535L508.589188-28.832323 508.589188-28.832323M895.045754 3.361616c0-21.333333-5.947475-32.193939-19.264646-32.193939L638.140703-28.832323c0 0.517172-0.646465 0.905051-0.646465 1.292929L637.494238 149.721212c0 37.494949-30.254545 77.834343-96.581818 77.834343-66.456566 0-96.581818-40.339394-96.581818-77.834343l0-177.260606c0-0.517172 0.905051-0.905051 0.905051-1.292929L231.643733-28.832323c-20.169697 0-45.123232 17.454545-45.123232 32.193939L186.520501 444.379798l331.119192 261.30101c11.894949 9.438384 33.357576 9.438384 45.252525 0l332.282828-262.852525L895.175046 3.361616 895.045754 3.361616M895.045754 3.361616"  horiz-adv-x="1024" />

    
    <glyph glyph-name="fenlei2" unicode="&#58961;" d="M249.17504-113.29536c-64.7936 0-123.56608 26.22976-166.05184 68.64384-42.48576 42.4192-68.7616 101.08928-68.7616 165.77536 0 64.74752 26.27584 123.35616 68.7616 165.77536l0.07168-0.07168 0.06656 0.07168c42.48576 42.4192 101.12 68.64384 165.9136 68.64384h208.9472a25.82016 25.82016 0 0 0 25.86112-25.81504v-208.60416c0-63.93344-25.72288-121.92768-67.32288-164.20352-0.47616-0.54784-0.95232-1.02912-1.4336-1.57184-42.49088-42.4192-101.1968-68.64384-166.05184-68.64384zM378.61888-8.11008l1.30048 1.2288c32.3584 32.99328 52.27008 78.14144 52.27008 128.00512v182.71232H249.17504a182.8352 182.8352 0 0 1-129.44896-53.41184v-0.06656c-33.11616-33.06496-53.57056-78.75584-53.57056-129.23392s20.4544-96.17408 53.57056-129.23392a182.62016 182.62016 0 0 1 129.44896-53.4784 182.62528 182.62528 0 0 1 129.44384 53.4784zM703.60576 463.18592h71.22432a182.62016 182.62016 0 0 1 129.44896 53.48352l1.30048 1.2288c32.36352 32.99328 52.2752 78.13632 52.2752 128a182.41536 182.41536 0 0 1-53.504 129.30048 183.02464 183.02464 0 0 1-129.51552 53.41184 182.85056 182.85056 0 0 1-129.44384-53.41184v-0.07168c-33.11616-33.05984-53.57568-78.75584-53.57568-129.2288v-208.60416c0-14.208-11.63264-25.82016-25.92768-25.82016-14.2336 0-25.86112 11.61216-25.86112 25.82016V645.90336c0 64.74752 26.27072 123.35616 68.7616 165.77536l0.06656-0.07168 0.06656 0.07168c42.49088 42.41408 101.12512 68.64384 165.9136 68.64384 64.7936 0 123.42784-26.22976 165.9136-68.64384l0.13824-0.13824c42.48576-42.4192 68.7616-100.95616 68.7616-165.64224 0-63.92832-25.72288-121.92256-67.32288-164.20352-0.48128-0.54784-0.95744-1.024-1.43872-1.56672-42.48576-42.4192-101.18656-68.64384-166.05184-68.64384h-71.2192c-14.30016 0-25.92768 11.61216-25.92768 25.82016-0.01024 14.27456 11.61216 25.8816 25.91744 25.8816zM249.17504 828.61568a182.71744 182.71744 0 0 1-128.21504-52.18816l-1.2288-1.29536c-33.11616-33.05984-53.57056-78.75584-53.57056-129.2288 0-50.47808 20.4544-96.17408 53.57056-129.23392s78.88384-53.48352 129.44896-53.48352h183.01952V645.90336a182.39488 182.39488 0 0 1-53.504 129.30048 183.05536 183.05536 0 0 1-129.52064 53.41184zM415.08864 811.67872l0.13824-0.13824c42.49088-42.41408 68.7616-100.95104 68.7616-165.63712V437.2992a25.86624 25.86624 0 0 0-25.86112-25.82016h-208.9472c-64.7936 0-123.56608 26.22976-166.05184 68.64384C40.63744 522.5472 14.3616 581.2224 14.3616 645.90336c0 64.74752 26.27584 123.35616 68.7616 165.77536 0.54784 0.47616 1.02912 0.95232 1.57184 1.4336C127.04768 854.64064 185.13408 880.32256 249.17504 880.32256c64.78848 0 123.42784-26.22976 165.9136-68.64384zM774.82496-61.58848a182.6048 182.6048 0 0 1 129.44384 53.4784h0.07168c33.04448 33.05984 53.504 78.75584 53.504 129.23392a182.41024 182.41024 0 0 1-53.504 129.30048 183.00416 183.00416 0 0 1-129.51552 53.41184h-183.01952v-182.71232c0-50.47808 20.45952-96.17408 53.57568-129.23392a182.6048 182.6048 0 0 1 129.44384-53.4784zM608.77824-44.65152c-42.49088 42.41408-68.7616 101.08928-68.7616 165.77536v208.59904c0 14.27456 11.62752 25.82016 25.86112 25.82016h208.9472c64.7936 0 123.42784-26.22976 165.9136-68.64384l0.13824-0.13824c42.49088-42.4192 68.7616-100.95616 68.7616-165.63712 0-64.68608-26.27072-123.22304-68.7616-165.63712l-0.06656-0.07168 0.06656-0.06656c-42.48576-42.4192-101.18656-68.64384-166.05184-68.64384-64.78848 0-123.56096 26.22464-166.04672 68.64384z"  horiz-adv-x="1024" />

    
    <glyph glyph-name="paixu2" unicode="&#58912;" d="M319.2 740.5c-12.9 5.3-27.6 2.4-37.4-7.4L75.9 527.9c-13.4-13.4-13.4-35 0-48.4 13.4-13.4 35.1-13.4 48.5 0l147.3 146.8v-567.2c0-18.9 15.4-34.2 34.3-34.2s34.3 15.3 34.3 34.2V708.9c0.1 13.8-8.3 26.3-21.1 31.6zM948.1 254.3c-13.4 13.4-35.1 13.4-48.5 0l-113-112.6V708.9c0 18.9-15.3 34.2-34.3 34.2S718 727.8 718 708.9v-649.8c0-13.8 8.3-26.3 21.2-31.6 4.3-1.8 8.7-2.6 13.1-2.6 8.9 0 17.7 3.5 24.3 10l171.6 171c13.3 13.4 13.3 35-0.1 48.4z"  horiz-adv-x="1024" />

    
    <glyph glyph-name="paixu1" unicode="&#58881;" d="M852.437333 810.666667L554.666667 426.666667l0-426.666667c0 0-85.333333 47.872-85.333333 128l0 256 0 42.666667L171.562667 810.666667 852.437333 810.666667M919.722667 896L104.277333 896c0 0-11.008 0-15.616 0C63.274667 896 42.666667 875.392 42.666667 850.005333 42.666667 845.482667 44.032 841.386667 45.226667 837.290667c0 0 10.624-19.285333 11.818667-20.437333L384 426.666667l0-298.666667c0-57.813333 18.005333-99.328 43.178667-128.597333l92.885333-94.762667C537.984-112.682667 550.016-128 573.312-128c33.792 0 61.184 27.349333 61.269333 61.098667l0.64 0.170667L635.221333 404.778667l331.690667 412.074667c1.194667 1.152 2.005333 2.56 3.114667 3.84L981.333333 834.730667l-2.56 2.56C979.968 841.386667 981.333333 845.482667 981.333333 850.005333 981.333333 875.392 960.725333 896 935.338667 896c-4.608 0-8.789333-1.365333-12.970667-2.602667L919.722667 896 919.722667 896z"  horiz-adv-x="1024" />

    
    <glyph glyph-name="wode" unicode="&#58948;" d="M927.744-70.656H135.168c-16.384 0-32.768 8.192-43.008 20.48-10.24 14.336-14.336 30.72-10.24 47.104 40.96 208.896 210.944 364.544 415.744 380.928 8.192 2.048 14.336 2.048 24.576 2.048v-20.48c-8.192 0-14.336 0-22.528-2.048-196.608-14.336-360.448-163.84-399.36-364.544-2.048-10.24 0-22.528 8.192-30.72 6.144-8.192 16.384-12.288 26.624-12.288h792.576c10.24 0 20.48 4.096 26.624 12.288 6.144 8.192 10.24 18.432 8.192 30.72-24.576 131.072-104.448 243.712-217.088 307.2-12.288 8.192-26.624 14.336-38.912 20.48l8.192 18.432c14.336-6.144 28.672-14.336 40.96-20.48 118.784-67.584 200.704-184.32 227.328-321.536 4.096-16.384 0-32.768-12.288-47.104-10.24-12.288-26.624-20.48-43.008-20.48z m-399.36 430.08h-4.096v20.48h6.144l-2.048-20.48zM536.576 359.424c-129.024 0-235.52 106.496-235.52 235.52S407.552 830.464 536.576 830.464s235.52-106.496 235.52-235.52-106.496-235.52-235.52-235.52z m0 450.56c-118.784 0-215.04-96.256-215.04-215.04s96.256-215.04 215.04-215.04 215.04 96.256 215.04 215.04S655.36 809.984 536.576 809.984z"  horiz-adv-x="1024" />

    
    <glyph glyph-name="next_icon" unicode="&#58974;" d="M275.89-116c0.009-0 0.020-0 0.030-0 7.661 0 14.596 3.111 19.609 8.139l472.221 472.221c5.028 5.026 8.137 11.97 8.137 19.64s-3.11 14.614-8.137 19.64l-472.22 472.22c-5.026 5.026-11.97 8.135-19.64 8.135-15.34 0-27.775-12.435-27.775-27.775 0-7.67 3.109-14.614 8.135-19.64l452.58-452.58-452.58-452.58c-5.025-5.027-8.133-11.97-8.133-19.64 0-15.34 12.434-27.776 27.773-27.78z"  horiz-adv-x="1024" />

    
    <glyph glyph-name="fanhui1" unicode="&#58980;" d="M501.9-53.7c-7 0-13.9 2.7-19.2 8.1L74.4 368.2c-10.6 10.8-10.6 28.2 0 39L482.7 820.9c10.6 10.8 27.8 10.8 38.5 0 10.6-10.8 10.6-28.2 0-39L132 387.6l389.1-394.3c10.6-10.8 10.6-28.2 0-39-5.3-5.3-12.3-8-19.2-8z"  horiz-adv-x="1024" />

    
    <glyph glyph-name="xin" unicode="&#58990;" d="M512.032-72.032c-4.208 0-8.32 1.44-11.664 4.112C408 5.632 182.64 192.944 84.896 343.952 43.136 408.576 0 475.328 0 569.264 0 718.56 107.2 840.032 238.96 840.032c69.84 0 136.176-34.912 182-95.76l91.008-121.296 90.992 121.264c45.824 60.88 112.16 95.776 181.984 95.776C916.752 840.032 1024 718.56 1024 569.264c0-93.424-42.992-160-84.56-224.4l-0.288-0.448c-39.408-60.96-104.416-134.848-193.264-219.632-89.488-85.392-177.648-157.408-222.24-192.736a18.688 18.688 0 0 0-11.616-4.08z"  horiz-adv-x="1024" />

    
    <glyph glyph-name="konggouwuche" unicode="&#58933;" d="M806.807453 80.351586c-53.273785 0-96.57394-43.786673-96.57394-97.668607 0-53.760304 43.421784-97.546977 96.57394-97.546977 53.273785 0 96.69557 43.786673 96.69557 97.546977-0.12163 53.881934-43.543414 97.668607-96.69557 97.668607z m0-143.766243c-12.284594 0-23.961041 4.865186-32.596745 13.500891a46.231429 46.231429 0 0 0-13.500891 32.596745c0 12.284594 4.865186 23.961041 13.500891 32.596745 8.635705 8.635705 20.433781 13.500891 32.596745 13.500891 12.284594 0 23.961041-4.865186 32.596746-13.500891 8.635705-8.635705 13.500891-20.433781 13.500891-32.596745 0.12163-25.420596-20.55541-46.097636-46.097637-46.097636z m-8.878964 279.383299c-4.743556 0-9.730372 0.12163-14.838817 0.364889l-385.201093-0.364889s-13.257632 7.05452-13.014372 25.055708c0 17.14978 12.771113 25.298967 12.771113 25.298966h403.567169c43.300154 1.702815 69.693788 4.621927 90.857347 33.934672 6.568001 9.000594 11.433187 20.312151 16.784891 34.29956L961.033846 517.731797c6.689631 32.718375-1.824445 45.246229-10.946668 55.34149-14.352298 15.811854-54.490082 15.933484-54.490082 15.933483H347.290646s-12.527854 7.419408-12.527854 25.785486c0 17.14978 12.527854 24.2043 12.527854 24.204299h548.18482c5.230075-0.364889 54.611712 4.135408 89.884309-29.312745 21.041929-20.068892 27.001782-46.949044 23.596152-76.626677-1.946074-17.27141-57.409193-230.488181-81.735123-264.057964-22.258225-31.01556-53.517045-53.030526-129.292315-53.030527zM347.290646 118.543295c-43.543414 0-56.679416 10.46015-69.815417 26.515263-17.14978 21.285188-19.339114 48.895118-22.258226 61.787861L168.130176 627.320109C166.184101 639.361444 152.68321 656.632854 141.006764 663.322485c-19.460744 10.946668-100.830978 6.446371-116.886091 7.419408 0 0-9.973631 7.905927-9.973631 24.08267 0 18.487706 9.730372 25.055707 9.730372 25.055708 6.203112 0.608148 15.933484 0.608148 49.624896 0.851407 48.16534 0.12163 77.356456 0 107.398979-20.798669 32.475116-22.623114 34.786079-55.463119 39.286376-84.289346l88.424753-419.135764 0.973037-4.621927c1.824445-5.230075 3.892149-9.608742 9.973631-14.960446 7.176149-6.446371 14.838817-8.027557 22.136596-8.392446h1.337926l567.523934 0.12163v-49.746526H353.007239c-1.946074-0.243259-3.770519-0.243259-5.716593-0.364889z m96.69557-38.191709c-53.273785 0-96.57394-43.786673-96.57394-97.668607 0-53.760304 43.421784-97.546977 96.57394-97.546977 53.273785 0 96.69557 43.786673 96.695569 97.546977-0.243259 53.881934-43.421784 97.668607-96.695569 97.668607z m0-143.766243c-12.284594 0-23.961041 4.865186-32.596746 13.500891a46.231429 46.231429 0 0 0-13.500891 32.596745c0 12.284594 4.865186 23.961041 13.500891 32.596745 8.635705 8.635705 20.433781 13.500891 32.596746 13.500891 25.420596 0 46.097636-20.67704 46.219266-46.219266-0.12163-25.298967-20.79867-45.976007-46.219266-45.976006zM460.649477 723.285901l-39.772894 98.641644c-4.378667 11.068298 0.973037 23.596152 11.919705 28.096448l6.203112 2.432593c11.068298 4.378667 23.596152-0.973037 28.096449-11.919705l39.772894-98.641644c4.378667-11.068298-0.973037-23.596152-11.919705-28.096449l-6.203112-2.554222c-11.068298-4.257038-23.596152 0.973037-28.096449 12.041335z m378.997981 0l39.772895 98.641644c4.378667 11.068298-0.973037 23.596152-11.919706 28.096448l-6.203112 2.432593c-11.068298 4.378667-23.596152-0.973037-28.096448-11.919705l-39.772895-98.641644c-4.378667-11.068298 0.973037-23.596152 11.919705-28.096449l6.081483-2.554222c11.068298-4.378667 23.717781 0.973037 28.218078 12.041335z m-210.784179 30.285782V859.997624c0 11.798076 9.730372 21.528448 21.528448 21.528448h6.689631c11.798076 0 21.528448-9.730372 21.528447-21.528448v-106.425941c0-11.919705-9.730372-21.528448-21.528447-21.528447h-6.689631c-11.798076 0.12163-21.406818 9.730372-21.528448 21.528447z"  horiz-adv-x="1024" />

    


  </font>
</defs>
</svg>
